<?xml version="1.0" standalone="no"?>
<!DOCTYPE svg PUBLIC "-//W3C//DTD SVG 20010904//EN"
 "http://www.w3.org/TR/2001/REC-SVG-20010904/DTD/svg10.dtd">
<svg version="1.0" xmlns="http://www.w3.org/2000/svg"
 width="794.000000pt" height="794.000000pt" viewBox="0 0 794.000000 794.000000"
 preserveAspectRatio="xMidYMid meet">
<metadata>
Created by potrace 1.11, written by Peter Selinger 2001-2013
</metadata>
<g transform="translate(0.000000,794.000000) scale(0.100000,-0.100000)"
fill="#000000" stroke="none">
<path d="M3068 5927 c-20 -7 -40 -15 -44 -19 -4 -5 -18 -8 -31 -8 -13 0 -33
-9 -45 -20 -12 -11 -30 -20 -40 -20 -10 0 -18 -6 -18 -14 0 -8 -17 -16 -47
-20 -32 -4 -56 -15 -72 -31 -13 -14 -29 -25 -36 -25 -43 0 -203 -196 -210
-257 -1 -11 -12 -33 -24 -48 -24 -32 -28 -53 -6 -35 32 26 14 -10 -25 -51 -36
-38 -45 -57 -41 -82 3 -17 -23 -76 -31 -71 -4 3 -8 0 -8 -6 0 -7 -9 -23 -20
-37 -11 -14 -20 -32 -20 -40 0 -9 -13 -32 -30 -53 -16 -21 -30 -45 -30 -53 0
-8 -7 -20 -15 -27 -9 -7 -14 -19 -11 -27 3 -7 -4 -21 -15 -31 -11 -9 -27 -32
-34 -49 -8 -18 -20 -33 -28 -33 -14 0 -77 -60 -77 -74 0 -10 -15 -24 -86 -83
-113 -94 -131 -113 -109 -113 16 -1 14 -6 -15 -28 -48 -37 -79 -72 -97 -107
l-16 -30 22 19 c15 13 21 15 21 6 0 -9 6 -7 19 6 10 10 17 22 14 27 -2 4 1 7
6 7 6 0 11 -5 11 -12 0 -7 32 21 70 61 76 79 90 87 35 21 -19 -23 -35 -46 -35
-52 0 -10 -53 -83 -74 -103 -45 -42 -146 -246 -146 -296 0 -22 -16 -33 -26
-18 -4 8 -3 9 4 5 9 -5 12 7 12 42 0 27 7 69 15 92 22 64 18 70 -9 14 -33 -66
-69 -190 -70 -241 -1 -22 -4 -39 -8 -37 -3 2 -9 -24 -13 -59 -6 -57 -10 -64
-35 -76 -16 -7 -32 -22 -36 -34 -11 -35 -93 -160 -155 -235 -6 -7 -15 -30 -21
-50 -6 -20 -21 -51 -35 -69 -14 -18 -23 -38 -21 -44 5 -16 59 31 93 83 36 54
76 98 88 98 18 0 1 -107 -25 -156 -14 -27 -29 -60 -33 -74 -4 -14 -25 -63 -46
-110 -28 -63 -38 -101 -40 -145 -1 -33 -6 -67 -10 -76 -5 -9 -12 -104 -17
-211 -9 -187 -10 -197 -34 -229 -35 -46 -101 -180 -93 -187 4 -4 11 1 17 11 8
14 13 16 24 6 11 -9 14 -9 14 0 0 7 4 9 10 6 5 -3 10 -1 10 5 0 6 5 8 11 5 7
-5 5 -13 -6 -25 -9 -10 -15 -27 -13 -37 3 -14 20 -2 80 57 100 98 116 112 228
197 134 101 145 111 210 175 32 31 56 59 52 62 -3 3 -1 6 5 6 6 0 54 43 107
95 l97 95 94 -6 c79 -6 98 -4 120 10 25 16 25 16 25 -11 0 -17 -12 -39 -29
-56 -19 -19 -31 -43 -35 -72 -6 -39 -11 -45 -42 -55 -18 -6 -34 -15 -34 -20 0
-5 -12 -15 -27 -22 -29 -14 -33 -30 -20 -78 6 -25 5 -25 -59 -25 -71 0 -77 -4
-95 -68 -8 -30 -18 -42 -45 -53 -27 -11 -34 -19 -29 -33 8 -27 -4 -51 -28 -51
-47 0 -147 -23 -147 -34 0 -6 -11 -27 -24 -47 -13 -19 -30 -55 -36 -80 -7 -24
-19 -57 -28 -72 -21 -36 -127 -117 -154 -117 -23 0 -126 -77 -159 -120 -79
-99 -78 -98 -51 -99 9 -1 33 -3 53 -7 25 -4 39 -1 48 10 16 19 136 23 147 5 8
-14 131 -2 159 15 14 9 28 10 44 4 14 -5 37 -6 52 -3 19 4 31 1 41 -12 31 -43
44 -46 100 -27 29 10 59 17 65 16 7 -2 33 4 58 13 64 21 114 19 141 -6 l22
-20 51 27 c28 15 51 31 51 34 0 4 25 32 55 62 30 30 55 53 55 50 0 -3 6 2 13
12 18 25 63 18 59 -9 -5 -32 -2 -128 4 -156 5 -27 40 -46 46 -27 3 8 11 7 25
0 15 -9 29 -9 53 -1 23 9 34 9 43 0 16 -16 48 -14 69 6 15 14 24 14 58 4 21
-6 46 -21 54 -33 9 -12 21 -18 30 -15 8 3 20 -1 27 -9 6 -8 14 -12 17 -9 3 3
11 0 18 -6 9 -7 14 -2 19 21 7 34 13 37 29 15 6 -8 23 -16 39 -19 15 -3 34
-11 42 -19 19 -20 53 -11 82 22 21 24 22 25 24 6 1 -11 1 -23 0 -27 -2 -17 19
-6 39 19 20 25 23 26 34 11 9 -13 16 -14 31 -5 24 13 67 19 60 7 -2 -4 7 -10
21 -13 27 -5 54 14 54 39 0 7 9 19 20 26 11 7 20 20 20 28 1 13 3 12 13 -2 14
-17 120 -68 143 -68 8 0 15 -6 15 -12 1 -7 2 -17 3 -23 0 -5 10 -20 21 -32 11
-12 26 -29 34 -38 17 -21 22 -15 23 26 1 32 29 68 53 69 7 0 10 16 8 37 -3 31
-2 35 7 20 13 -21 30 -22 30 -3 0 23 33 8 58 -27 12 -17 22 -26 22 -20 0 7 7
10 15 7 9 -4 15 0 15 7 1 8 7 3 15 -11 8 -14 14 -19 15 -12 0 9 7 11 19 7 13
-4 27 1 41 15 l22 22 -21 22 c-12 12 -21 25 -21 29 0 12 30 7 35 -6 4 -8 21
-11 50 -9 25 2 52 -1 59 -8 11 -9 16 -7 21 9 7 22 21 26 43 12 11 -7 11 -9 -2
-14 -17 -7 -23 -67 -7 -67 17 0 23 20 11 35 -17 21 4 27 36 10 23 -12 25 -15
10 -15 -16 0 -18 -2 -7 -12 10 -11 15 -10 25 4 7 10 16 15 19 11 4 -3 7 0 7 8
1 16 34 59 46 59 4 0 3 -5 -4 -12 -17 -17 -15 -31 3 -24 19 7 21 -30 2 -41 -8
-4 -17 -20 -20 -35 l-7 -26 58 5 c54 5 99 21 132 47 14 11 28 13 48 6 4 -2 23
-4 42 -4 33 -1 35 -3 32 -31 -3 -24 -1 -28 9 -17 18 17 56 15 63 -4 4 -11 13
-14 31 -10 19 5 25 2 25 -10 0 -9 9 -18 20 -21 24 -6 24 -12 5 -37 -23 -30
-19 -54 4 -28 10 12 21 19 25 15 3 -3 6 1 6 10 0 9 6 17 14 17 8 0 22 10 30
21 9 14 21 19 31 15 9 -3 13 -2 10 4 -3 6 -1 10 4 10 6 0 11 7 11 15 0 8 6 14
13 12 6 -1 11 4 9 12 -2 9 4 12 18 8 11 -3 20 -1 20 5 0 5 4 7 9 3 5 -3 13 0
16 5 4 6 17 10 30 8 22 -3 31 4 108 91 l22 24 3 -27 c2 -15 10 -30 18 -33 7
-3 12 -9 9 -13 -8 -12 56 -100 72 -100 7 0 13 -8 13 -19 0 -10 7 -24 15 -31 8
-7 15 -18 15 -24 0 -7 6 -21 14 -31 13 -18 15 -18 56 4 23 12 49 20 58 16 8
-3 22 4 32 15 12 14 21 17 25 10 4 -6 12 -9 19 -7 7 3 22 -10 35 -29 24 -35
49 -38 31 -4 -14 26 -12 33 4 18 8 -7 12 -16 10 -19 -2 -4 3 -9 11 -13 8 -3
15 -12 15 -20 0 -15 45 -30 60 -21 6 4 11 16 11 28 1 16 3 17 6 5 2 -9 11 -19
19 -22 10 -4 14 3 14 27 l0 32 20 -32 c10 -17 27 -32 37 -32 10 0 30 -3 45 -7
21 -5 29 -2 34 10 5 13 9 12 26 -9 21 -27 47 -32 66 -13 9 9 15 9 24 0 7 -7 9
-12 4 -12 -4 0 -1 -7 8 -15 18 -19 46 -9 46 15 0 11 5 22 11 25 5 4 9 19 8 33
-4 56 1 70 31 82 16 7 41 9 56 6 20 -5 27 -3 31 13 3 11 14 23 24 26 10 4 19
10 19 15 0 5 11 5 25 -2 19 -9 29 -7 51 6 25 17 26 17 19 -4 -7 -22 7 -40 30
-40 6 0 3 5 -5 10 -9 6 -10 10 -3 10 7 0 18 -6 25 -13 19 -21 44 -9 57 26 l11
32 -5 -30 c-4 -28 -3 -27 15 10 18 36 19 29 5 -23 -6 -23 31 -27 61 -8 11 8
46 17 76 21 66 8 94 30 104 80 6 35 -7 109 -32 178 -8 20 -14 48 -14 60 0 13
-5 28 -10 33 -6 6 -18 26 -28 45 -10 19 -35 63 -54 99 -20 36 -41 84 -47 107
-6 23 -30 82 -52 130 -33 71 -41 102 -44 158 -5 88 -17 150 -38 195 -28 59
-94 128 -134 141 -47 15 -83 49 -54 49 15 0 111 62 111 71 0 5 -4 9 -9 9 -5 0
-8 8 -7 17 0 10 -16 27 -44 42 -45 26 -46 26 -259 24 -118 -2 -215 -4 -217 -6
-4 -4 22 -109 36 -142 6 -16 14 -46 16 -65 9 -73 12 -87 43 -160 18 -41 36
-84 42 -95 5 -11 11 -33 13 -49 2 -16 12 -37 23 -46 11 -9 25 -25 31 -37 30
-56 132 -398 132 -445 0 -9 -4 -20 -10 -23 -6 -4 -7 1 -3 12 4 14 3 15 -6 7
-10 -9 -10 -25 -2 -69 6 -31 7 -64 3 -73 -5 -10 -10 -35 -11 -57 -1 -22 -6
-44 -10 -48 -11 -11 -18 22 -27 118 -6 73 -37 199 -53 219 -5 6 -12 30 -16 53
-4 24 -11 45 -16 49 -5 3 -7 10 -4 15 4 5 0 21 -9 36 -23 44 -44 95 -52 128
-8 31 -31 61 -41 52 -3 -3 6 -30 20 -59 24 -53 39 -98 42 -130 1 -9 11 -41 22
-70 55 -144 79 -285 56 -322 -4 -6 -6 -24 -5 -41 2 -38 -13 -105 -20 -85 -3 8
-11 33 -17 55 -7 22 -21 58 -32 80 -10 22 -24 59 -29 83 -6 23 -15 42 -20 42
-6 0 -10 11 -10 25 0 14 -4 25 -10 25 -5 0 -10 5 -10 11 0 5 -11 35 -25 65
-14 30 -25 69 -25 87 -1 18 -7 50 -15 72 -8 22 -15 55 -15 73 0 18 -4 31 -9
28 -5 -3 -9 10 -9 30 0 19 -7 43 -15 52 -8 9 -18 35 -21 57 -9 53 -29 108 -41
117 -6 5 -4 8 5 8 13 0 13 2 1 9 -8 5 -16 22 -17 38 -3 30 -69 202 -85 218 -5
5 -9 17 -9 27 0 10 -9 35 -20 55 -11 20 -17 46 -14 58 3 11 0 34 -7 50 -21 51
-44 188 -38 225 l6 35 2 -39 c1 -48 8 -44 13 8 2 22 9 41 15 43 7 3 9 -4 6
-17 -3 -12 1 -26 10 -33 8 -7 18 -21 21 -32 3 -11 2 17 -1 63 -3 56 -2 82 6
82 6 0 11 -11 11 -25 0 -14 4 -25 8 -25 5 0 7 15 5 33 -3 24 -2 29 6 17 6 -8
11 -28 11 -43 0 -20 4 -26 13 -21 9 6 9 4 1 -7 -11 -14 -8 -29 17 -87 8 -19
19 -30 26 -28 7 3 13 2 13 -2 0 -5 7 -17 15 -28 14 -17 15 -11 10 71 -3 50 -8
97 -11 106 -2 9 -6 43 -8 75 -3 33 -9 102 -16 154 -13 112 -36 405 -55 705 -4
55 -11 104 -16 110 -5 5 -9 24 -9 42 0 18 -4 52 -10 75 -5 24 -16 86 -25 138
-26 149 -112 368 -174 442 -14 17 -56 63 -93 103 -38 39 -68 76 -68 81 0 14
-69 74 -85 74 -8 0 -17 5 -20 10 -3 6 -14 10 -23 10 -9 0 -28 7 -42 14 -62 36
-90 47 -98 42 -4 -2 -21 4 -37 14 -19 12 -34 16 -44 10 -20 -10 -71 -1 -71 13
0 13 -173 1 -243 -17 -29 -8 -87 -30 -130 -50 -42 -20 -79 -36 -81 -36 -3 0
-33 -20 -69 -44 -105 -72 -184 -153 -242 -251 -50 -83 -55 -99 -71 -200 -15
-96 -21 -114 -48 -145 -61 -69 -75 -95 -77 -151 -3 -99 -20 -213 -41 -269 -20
-56 -19 -130 2 -171 7 -11 5 -20 -4 -28 -8 -6 -19 -31 -25 -54 -6 -24 -20 -52
-31 -62 -11 -10 -20 -31 -20 -46 0 -20 -11 -38 -35 -60 -19 -18 -35 -38 -35
-46 0 -7 -7 -13 -15 -13 -8 0 -28 -18 -46 -40 -18 -22 -36 -37 -40 -34 -5 3
-9 0 -9 -7 0 -13 -67 -79 -81 -79 -5 0 -9 -5 -9 -11 0 -10 -10 -24 -72 -101
-12 -15 -23 -35 -24 -44 -1 -9 -10 -24 -18 -33 -9 -10 -16 -25 -16 -34 0 -9
-4 -19 -10 -22 -10 -6 -51 -89 -56 -113 -1 -7 -11 -32 -22 -55 -10 -23 -25
-57 -33 -74 -8 -18 -17 -33 -21 -33 -5 0 -8 -8 -8 -17 0 -10 -5 -25 -11 -33
-7 -11 -9 5 -5 55 7 104 21 165 55 229 16 32 27 64 24 72 -4 10 0 12 11 8 9
-3 16 -1 16 6 0 6 -4 9 -9 5 -5 -3 -13 0 -17 7 -5 7 -10 4 -16 -11 -7 -20 -10
-21 -25 -10 -14 12 -15 11 -8 -11 7 -22 6 -23 -9 -11 -14 11 -16 11 -16 -3 0
-21 -52 -56 -58 -38 -2 6 -8 12 -14 12 -6 0 -5 -6 2 -15 9 -11 10 -19 2 -27
-14 -14 -33 -1 -25 17 6 18 -8 20 -25 3 -7 -7 -12 -9 -12 -5 0 3 26 37 58 74
31 38 66 82 77 98 41 60 104 208 140 330 10 33 23 68 27 78 12 24 23 163 20
257 -3 101 4 137 28 145 11 4 18 10 15 15 -2 4 -1 21 5 36 5 16 11 98 13 183
l4 154 30 31 c16 17 57 41 91 54 71 27 65 12 80 218 7 94 14 138 26 155 9 13
16 34 16 46 0 13 5 42 12 67 16 62 1 93 -91 175 -100 90 -164 128 -226 135
-114 14 -182 15 -217 3z m399 -262 c36 -9 43 -20 43 -79 0 -52 -20 -98 -77
-174 -18 -24 -33 -49 -33 -55 0 -22 -68 -109 -75 -96 -8 12 -25 128 -28 191
-2 20 -6 40 -10 44 -4 4 -2 13 4 21 6 7 7 13 3 13 -15 0 -34 38 -28 55 3 8 13
15 22 15 13 0 12 3 -4 15 -12 9 -14 14 -6 15 7 0 21 7 29 16 9 8 24 13 34 11
12 -3 19 0 19 9 0 8 6 11 15 8 8 -4 15 -1 15 6 0 10 3 10 15 0 12 -10 15 -9
15 6 1 17 2 17 10 3 5 -9 22 -20 37 -24z m1300 -114 c88 -89 128 -167 149
-291 17 -102 14 -182 -11 -266 -21 -72 -32 -175 -23 -210 9 -34 60 -90 137
-149 29 -22 57 -44 62 -50 46 -50 59 -70 59 -91 0 -30 -17 -64 -31 -64 -6 0
-24 -11 -41 -25 -23 -20 -41 -25 -81 -25 -60 0 -97 27 -97 72 0 37 -17 36 -25
-1 -5 -22 -1 -38 16 -60 13 -17 26 -31 30 -31 5 0 1 -19 -7 -42 -19 -53 -47
-176 -68 -302 -3 -16 -11 -55 -17 -85 -13 -64 -18 -336 -6 -396 6 -36 4 -43
-25 -77 -48 -53 -131 -168 -145 -200 -7 -15 -26 -48 -42 -72 -17 -24 -38 -63
-48 -87 -24 -60 -124 -220 -141 -227 -21 -8 -88 16 -120 43 -17 14 -35 25 -41
25 -6 0 -17 13 -25 29 -9 16 -22 31 -31 34 -8 4 -15 15 -15 26 0 11 -5 23 -11
26 -16 11 -29 53 -38 125 -5 36 -20 95 -34 130 -14 36 -29 92 -32 126 -3 34
-15 90 -27 125 -11 35 -22 89 -24 119 -9 205 -16 320 -20 350 -5 31 -4 33 7
15 7 -11 18 -24 24 -30 6 -5 23 -29 38 -52 28 -44 47 -55 47 -28 0 15 -43 89
-64 111 -6 6 -22 26 -36 45 -14 18 -64 76 -113 127 -130 140 -186 272 -152
359 25 63 45 180 45 260 0 59 5 83 21 109 23 38 77 80 97 76 10 -2 11 6 7 31
-9 44 3 57 114 122 93 55 98 73 7 25 -32 -17 -60 -29 -62 -27 -6 5 19 75 45
124 18 36 86 102 226 218 34 28 76 49 144 72 82 27 111 31 203 32 l107 1 68
-69z m-1950 -1213 c-3 -8 -6 -5 -6 6 -1 11 2 17 5 13 3 -3 4 -12 1 -19z m-86
-25 c0 -16 3 -23 5 -16 3 7 12 9 20 6 9 -3 14 1 14 13 1 18 1 18 11 0 9 -15
13 -16 20 -5 6 9 7 4 3 -16 -7 -32 -83 -112 -93 -98 -3 4 -13 10 -21 12 -22 6
-128 7 -128 1 2 -25 -5 -30 -12 -8 -8 28 1 95 13 90 13 -6 67 9 67 19 0 6 9 7
20 4 12 -4 20 -2 20 5 0 6 4 9 8 6 4 -2 14 -1 22 5 24 14 30 11 31 -18z m-261
-146 c0 -10 9 -28 20 -40 20 -20 20 -22 4 -34 -10 -7 -12 -13 -6 -13 7 0 12
-4 12 -8 0 -5 -16 -7 -35 -6 -25 2 -35 -1 -35 -11 0 -8 -4 -15 -10 -15 -5 0
-14 -10 -21 -21 -9 -17 -8 -20 2 -14 9 6 10 4 3 -6 -5 -8 -17 -39 -26 -69 -9
-30 -17 -48 -17 -40 -1 8 -6 22 -11 30 -9 13 -11 13 -20 0 -8 -13 -10 -12 -10
3 0 12 -4 16 -12 11 -7 -4 -10 -4 -6 1 4 4 3 13 -2 20 -5 6 -12 37 -15 69 -4
46 -2 62 12 80 10 12 24 21 31 18 7 -2 27 12 45 33 18 20 42 37 55 38 12 1 22
6 22 12 0 18 20 -19 20 -38z m292 -31 c11 -17 10 -76 -2 -76 -5 0 -10 -5 -10
-11 0 -5 5 -7 10 -4 12 7 12 -2 1 -30 -6 -16 -11 -9 -20 35 -6 30 -18 61 -25
70 -8 8 -17 25 -21 38 l-7 23 34 -17 c18 -9 36 -22 40 -28z m-477 -6 c3 -5 1
-10 -4 -10 -6 0 -11 5 -11 10 0 6 2 10 4 10 3 0 8 -4 11 -10z m-588 -87 c-3
-10 -5 -4 -5 12 0 17 2 24 5 18 2 -7 2 -21 0 -30z m360 -23 c-11 -99 -27 -148
-61 -181 -31 -31 -81 -62 -92 -57 -3 2 -12 -8 -20 -22 -15 -25 -15 -25 -11 10
3 19 16 57 30 83 14 26 24 54 21 62 -3 8 0 22 6 32 10 16 11 16 6 1 -7 -24 6
-23 27 2 10 12 15 26 11 32 -5 8 0 9 16 5 24 -6 56 16 45 32 -3 5 -1 12 5 16
5 3 10 15 10 26 0 10 3 19 6 19 4 0 4 -27 1 -60z m201 -16 c2 -68 1 -75 -15
-72 -10 2 -19 12 -21 23 -3 11 -10 24 -18 28 -19 11 -18 57 1 57 8 0 15 9 15
20 0 12 7 20 18 20 15 0 18 -11 20 -76z m-575 1 c-7 -21 -13 -19 -13 6 0 11 4
18 10 14 5 -3 7 -12 3 -20z m3684 -7 c-3 -8 -6 -5 -6 6 -1 11 2 17 5 13 3 -3
4 -12 1 -19z m25 -43 c-2 -14 -6 -25 -8 -25 -2 0 -4 11 -4 25 0 14 4 25 9 25
4 0 6 -11 3 -25z m-2839 1 c3 -8 3 -24 0 -35 -3 -12 -1 -21 6 -21 5 0 8 6 5
14 -3 8 -1 17 5 20 6 4 9 -6 7 -29 -1 -19 1 -35 4 -35 4 0 6 -10 5 -22 -1 -13
-3 -35 -4 -49 -1 -18 -8 -28 -21 -32 -11 -3 -20 -11 -20 -17 0 -10 3 -10 15 0
18 15 18 10 5 -25 -6 -17 -15 -24 -22 -19 -10 6 -11 4 0 -7 15 -16 16 -29 1
-29 -5 0 -7 5 -4 10 3 6 2 10 -3 10 -5 0 -12 -11 -14 -25 -3 -13 -1 -22 3 -19
5 3 9 0 9 -5 0 -6 -8 -11 -18 -11 -16 0 -17 6 -11 58 10 76 19 112 30 112 5 0
9 -5 9 -12 0 -6 3 -8 7 -4 10 10 12 70 3 76 -10 7 -19 110 -10 110 5 0 10 -6
13 -14z m-833 -27 c0 -47 -25 -155 -38 -164 -9 -7 -15 -36 -16 -80 -5 -125 -5
-125 -20 -119 -23 9 -12 154 20 254 14 47 28 95 31 108 7 28 23 29 23 1z m121
-87 c-6 -15 -10 -53 -10 -84 0 -48 3 -56 16 -51 13 5 12 2 -3 -14 -24 -25 -26
-22 -33 30 -9 78 -4 159 10 168 21 12 33 -18 20 -49z m1636 30 c-10 -10 -17
-23 -17 -28 0 -8 -18 -32 -75 -96 -8 -10 -15 -28 -16 -40 0 -13 -3 -17 -6 -10
-7 18 -23 4 -23 -21 -1 -21 -29 -82 -30 -63 0 5 -7 3 -15 -4 -8 -7 -13 -16
-10 -20 3 -5 -2 -15 -10 -23 -8 -9 -15 -19 -15 -24 0 -17 -25 -63 -34 -63 -5
0 -17 -10 -27 -22 -11 -11 -19 -16 -19 -9 0 7 -4 9 -10 6 -18 -11 -11 11 9 29
10 10 22 32 25 51 4 18 13 36 21 39 8 3 15 14 15 25 0 11 5 23 10 26 6 3 10
18 10 32 0 19 4 24 16 19 10 -4 14 -2 11 6 -5 14 23 68 35 68 4 0 8 6 8 13 0
6 33 38 73 69 71 57 106 75 74 40z m1843 14 c0 -3 -4 -8 -10 -11 -5 -3 -10 -1
-10 4 0 6 5 11 10 11 6 0 10 -2 10 -4z m31 -29 c-15 -15 -14 -44 2 -50 8 -4 6
-6 -4 -6 -9 -1 -21 10 -27 24 -7 15 -8 25 -2 25 6 0 10 7 10 15 0 9 6 12 16 8
11 -4 12 -9 5 -16z m-3144 -59 c-3 -8 -6 -5 -6 6 -1 11 2 17 5 13 3 -3 4 -12
1 -19z m183 -28 c0 -49 -21 -134 -30 -120 -5 7 -6 19 -3 27 3 7 -1 15 -9 18
-19 8 -14 66 6 77 9 5 16 16 16 24 0 8 5 12 10 9 6 -3 10 -19 10 -35z m-213 8
c-3 -8 -6 -5 -6 6 -1 11 2 17 5 13 3 -3 4 -12 1 -19z m3168 -6 c-3 -3 -11 0
-18 7 -9 10 -8 11 6 5 10 -3 15 -9 12 -12z m-3135 -6 c0 -3 -4 -8 -10 -11 -5
-3 -10 -1 -10 4 0 6 5 11 10 11 6 0 10 -2 10 -4z m3122 -43 c-3 -16 -7 -22
-10 -15 -4 13 4 42 11 42 2 0 2 -12 -1 -27z m-3118 -23 c10 -13 9 -13 -6 -1
-10 7 -18 21 -17 30 0 13 1 14 6 1 3 -8 11 -22 17 -30z m780 -56 c4 -12 2 -15
-9 -10 -8 3 -14 2 -12 -2 3 -10 -93 -105 -99 -99 -9 8 8 34 29 46 12 6 32 27
45 46 24 38 37 43 46 19z m2360 -30 c4 -10 1 -14 -6 -12 -15 5 -23 28 -10 28
5 0 13 -7 16 -16z m-2841 -11 c-3 -7 -9 -10 -14 -7 -14 8 -11 21 5 21 8 0 12
-6 9 -14z m2471 -39 c3 -9 4 -20 0 -25 -3 -5 -1 -9 5 -9 5 0 13 -21 17 -47 3
-27 9 -52 12 -58 4 -5 7 -14 9 -20 8 -37 82 -226 94 -241 5 -6 7 -13 4 -16 -2
-2 4 -28 15 -56 11 -29 20 -68 20 -87 0 -18 4 -36 9 -40 6 -3 9 -13 9 -23 -1
-9 7 -44 17 -76 15 -50 15 -65 5 -96 -12 -36 -11 -61 6 -211 5 -46 3 -57 -10
-62 -10 -4 -16 -1 -16 8 0 18 -20 20 -20 3 -1 -7 -7 -2 -15 12 l-14 25 -2 -25
c-1 -26 -33 135 -44 225 -9 71 -33 188 -45 220 -6 15 -8 30 -5 35 3 5 1 11 -4
15 -6 3 -20 27 -32 53 -12 26 -30 63 -39 82 -40 80 -52 180 -37 310 1 14 0 39
-4 57 -5 24 -3 30 7 26 9 -3 14 2 14 16 0 25 35 29 44 5z m-3404 -8 c0 0 -9
-30 -20 -65 -10 -35 -19 -67 -18 -70 1 -3 -1 -13 -5 -21 -3 -8 -11 -33 -18
-55 -6 -22 -18 -46 -26 -53 -7 -7 -13 -26 -13 -42 0 -29 -19 -53 -21 -28 -5
42 -3 85 4 81 4 -2 7 6 8 19 0 33 33 110 43 101 4 -4 6 1 5 12 -2 11 7 42 19
68 12 26 20 52 17 57 -3 6 1 7 9 4 9 -3 16 -7 16 -8z m1819 -38 c0 -18 -10
-52 -22 -74 -12 -23 -31 -59 -41 -79 -11 -21 -28 -40 -37 -42 -14 -4 -17 -12
-12 -34 4 -23 3 -28 -9 -24 -12 5 -17 -3 -22 -30 -4 -19 -11 -33 -15 -30 -5 2
-11 -7 -14 -20 -2 -14 0 -28 5 -31 4 -3 6 -10 3 -15 -4 -5 -1 -9 4 -9 6 0 11
7 11 15 0 8 9 23 20 33 13 12 18 26 14 38 -4 14 -3 15 4 6 5 -8 13 -13 18 -12
5 1 10 -3 12 -9 2 -6 -2 -11 -9 -11 -7 0 -10 -3 -6 -6 6 -6 -2 -19 -40 -60
-13 -14 -23 -27 -23 -30 0 -11 -82 -115 -87 -110 -7 7 -33 -20 -33 -34 0 -6
-5 -8 -10 -5 -6 4 -43 -26 -81 -67 -39 -40 -75 -72 -80 -70 -6 1 -8 -1 -6 -5
3 -5 -2 -17 -10 -28 -13 -16 -15 -17 -10 -2 9 24 -8 21 -33 -5 -17 -19 -20
-20 -20 -4 0 27 20 58 35 53 8 -4 11 1 8 13 -3 10 2 29 11 42 9 14 13 27 10
31 -6 5 1 15 34 52 6 7 12 18 12 24 0 6 5 11 10 11 6 0 10 4 10 9 0 6 14 25
30 43 17 18 33 43 37 56 3 12 14 27 24 33 12 6 19 21 19 39 0 16 5 32 10 35 6
3 10 15 10 26 0 10 5 19 10 19 6 0 10 7 10 15 0 9 7 18 15 21 8 4 15 11 15 16
0 5 10 24 22 41 13 18 23 35 23 38 0 3 8 13 18 23 9 10 17 22 17 28 0 16 108
118 125 118 10 0 15 -10 14 -32z m147 -160 c4 -24 12 -38 25 -41 16 -4 19 1
20 36 1 40 2 40 10 -13 4 -30 9 -93 10 -140 3 -96 11 -136 28 -132 10 2 15
-17 12 -45 -1 -6 4 -15 10 -19 19 -11 3 148 -16 162 -20 15 -19 25 1 17 13 -5
15 0 9 33 -3 21 -8 62 -10 89 l-5 50 20 -37 c19 -35 32 -48 29 -30 -3 19 2 42
9 42 15 0 71 -216 64 -243 -3 -11 24 -151 37 -195 6 -20 6 -43 1 -57 -5 -12
-7 -25 -4 -27 2 -3 -1 -50 -6 -106 -9 -93 -32 -189 -58 -238 -5 -10 -17 -41
-25 -69 -15 -50 -15 -50 -17 -15 -1 19 -2 43 -1 53 1 9 -4 17 -11 17 -9 0 -9
3 -2 8 14 9 25 52 12 49 -13 -3 -55 75 -64 120 -9 45 -9 44 -16 63 -8 22 -29
139 -31 177 -1 17 -6 29 -11 25 -5 -3 -7 2 -3 11 3 10 3 17 -1 17 -31 0 -57
231 -48 430 3 80 6 147 7 150 1 3 6 -20 10 -50 4 -30 11 -71 15 -92z m-943 20
c-50 -54 -123 -147 -123 -159 0 -5 7 -9 15 -9 8 0 15 -4 15 -10 0 -5 -6 -10
-14 -10 -8 0 -16 -6 -19 -12 -5 -17 -117 19 -117 37 0 23 61 75 122 104 35 16
83 45 108 65 60 46 62 45 13 -6z m557 33 c0 -6 -4 -13 -10 -16 -5 -3 -10 1
-10 9 0 9 5 16 10 16 6 0 10 -4 10 -9z m685 -97 c0 -48 -3 -67 -9 -57 -14 25
-16 130 -2 130 7 0 11 -25 11 -73z m-761 34 c-8 -27 -12 -33 -19 -27 -7 8 7
49 17 49 5 0 6 -10 2 -22z m493 0 c-3 -8 -6 -5 -6 6 -1 11 2 17 5 13 3 -3 4
-12 1 -19z m-464 -3 c-3 -9 -8 -14 -10 -11 -3 3 -2 9 2 15 9 16 15 13 8 -4z
m2162 -66 c8 -37 25 -38 26 -1 0 24 1 25 9 7 4 -11 4 -24 -1 -29 -5 -6 -9 -16
-9 -24 0 -12 3 -12 15 -2 8 7 15 11 16 9 0 -2 2 -13 4 -24 2 -10 8 -28 14 -40
5 -11 11 -29 13 -40 2 -12 11 -19 22 -18 14 1 17 -4 13 -23 -3 -18 0 -24 12
-22 9 2 15 -3 14 -9 -5 -22 14 -14 20 9 5 18 8 19 21 8 9 -7 16 -17 16 -22 0
-12 32 -81 40 -88 6 -4 12 -23 21 -65 2 -5 9 -16 16 -23 7 -7 13 -22 13 -32 0
-10 5 -20 10 -22 6 -2 12 -20 13 -41 3 -32 1 -36 -15 -31 -14 4 -18 0 -18 -16
0 -12 5 -18 10 -15 11 7 13 -6 4 -29 -3 -9 -10 -13 -15 -10 -5 3 -13 -6 -18
-20 -9 -23 19 -192 48 -291 5 -16 9 -39 9 -50 0 -11 3 -38 6 -59 3 -28 0 -46
-13 -62 l-17 -22 -15 21 c-7 12 -15 35 -16 51 -1 30 -22 62 -24 36 0 -8 -8 17
-18 56 -9 39 -27 84 -38 100 -16 23 -32 80 -37 137 -1 4 -6 11 -11 15 -19 13
-32 57 -27 95 2 20 0 37 -4 37 -5 0 -10 30 -11 67 -1 36 -7 71 -14 77 -8 8 -9
5 -4 -13 5 -16 4 -21 -4 -17 -6 4 -10 21 -9 39 1 18 -4 42 -10 54 -7 12 -12
30 -12 40 0 18 -53 129 -71 148 -5 5 -9 18 -9 30 0 21 -31 109 -43 121 -14 15
-6 40 16 50 28 13 53 -6 62 -47z m-3646 -44 c0 -30 -2 -36 -9 -25 -7 11 -9 1
-7 -33 2 -33 -1 -51 -12 -60 -12 -9 -13 -9 -7 1 4 6 3 12 -3 12 -9 0 -27 -57
-22 -74 1 -5 -5 -4 -13 3 -16 14 -13 63 9 121 7 20 17 58 21 85 l9 50 6 -45 6
-45 3 55 c2 47 3 51 10 25 4 -16 8 -48 9 -70z m223 63 c-7 -7 -12 -8 -12 -2 0
14 12 26 19 19 2 -3 -1 -11 -7 -17z m-54 -43 c-21 -18 -38 -39 -38 -45 0 -6
-5 -8 -12 -4 -8 5 -9 1 -4 -12 5 -14 4 -16 -4 -8 -15 15 -25 84 -12 84 6 0 14
-5 18 -12 4 -7 3 -8 -4 -4 -8 5 -12 -1 -12 -16 0 -18 2 -20 10 -8 8 13 10 13
10 0 0 -8 11 2 25 23 14 20 33 37 43 37 12 0 6 -10 -20 -35z m252 7 c-7 -3
-24 -16 -37 -28 -27 -27 -43 -31 -43 -9 0 8 3 14 8 13 15 -3 42 14 42 27 0 9
8 11 22 7 15 -4 18 -7 8 -10z m-160 -23 c0 -5 -8 -9 -17 -10 -11 0 -13 -3 -6
-6 10 -3 9 -8 -3 -20 -23 -23 -28 -8 -8 26 16 27 34 33 34 10z m-446 -52 c-6
-29 -19 -46 -35 -47 -4 0 1 20 9 44 18 50 37 51 26 3z m504 3 c-7 -11 -15 -20
-18 -20 -3 0 -18 -11 -34 -25 -33 -28 -48 -32 -40 -10 4 8 10 12 15 9 5 -3 9
2 9 10 0 9 6 16 13 16 8 0 24 9 37 20 13 11 25 20 27 20 2 0 -2 -9 -9 -20z
m-131 -27 c-15 -16 -17 -16 -17 -1 0 9 6 18 13 21 20 7 22 -2 4 -20z m3630 -5
c-3 -8 -6 -5 -6 6 -1 11 2 17 5 13 3 -3 4 -12 1 -19z m-3351 -23 c-21 -19 -42
-35 -47 -35 -4 0 -59 -51 -123 -112 -186 -182 -264 -253 -280 -256 -13 -3 -11
4 6 31 13 19 26 33 31 30 4 -2 7 3 7 11 0 9 6 16 14 16 8 0 18 10 22 23 4 12
16 30 28 40 11 10 21 24 22 30 0 7 2 17 2 23 3 22 103 119 119 116 8 -2 12 1
9 6 -9 15 31 45 53 39 14 -3 18 -1 14 11 -5 12 -1 14 22 8 23 -6 27 -4 21 10
-5 13 -4 14 7 6 10 -8 23 -5 53 13 56 35 64 31 20 -10z m-409 -27 c-3 -7 -5
-2 -5 12 0 14 2 19 5 13 2 -7 2 -19 0 -25z m818 -7 c16 -19 16 -20 -2 -18 -11
0 -19 8 -19 19 0 22 -1 22 21 -1z m-832 -26 c-3 -9 -8 -14 -10 -11 -3 3 -2 9
2 15 9 16 15 13 8 -4z m37 -39 c-6 -6 -10 -18 -10 -28 0 -10 -4 -18 -10 -18
-5 0 -10 -9 -10 -19 0 -11 -4 -22 -9 -25 -5 -3 -19 -25 -31 -48 -26 -50 -52
-81 -172 -206 -49 -51 -93 -90 -98 -87 -9 5 5 40 20 55 5 5 74 105 95 138 6 9
16 22 23 30 6 7 12 22 12 33 0 11 4 18 9 15 5 -3 14 1 21 9 7 8 10 15 7 15 -3
0 -1 13 4 30 6 17 16 27 22 23 6 -4 8 2 5 15 -4 15 -2 19 8 15 10 -3 14 3 14
20 0 40 9 55 31 50 22 -6 24 -14 7 -31 -9 -9 -9 -12 2 -12 19 0 50 30 50 49 0
14 2 14 10 1 6 -9 6 -18 0 -24z m814 19 c11 -8 16 -15 10 -15 -5 0 -18 7 -28
15 -11 8 -16 15 -10 15 5 0 18 -7 28 -15z m1459 -24 c9 -16 17 -37 17 -46 0
-9 4 -14 9 -11 12 8 19 -71 7 -91 -7 -13 -5 -15 7 -10 9 3 18 0 21 -9 3 -8 -1
-14 -9 -14 -10 0 -14 -12 -13 -42 1 -24 -2 -77 -6 -118 -4 -41 -9 -98 -11
-126 -2 -28 -10 -66 -18 -85 -7 -19 -14 -48 -15 -66 -1 -30 -31 -102 -32 -75
0 9 -7 8 -25 -4 -28 -18 -33 -7 -13 26 10 16 10 24 0 41 -10 15 -15 82 -18
232 -2 117 -6 228 -9 247 -10 79 -14 184 -6 155 7 -24 9 -25 10 -8 1 20 21 45
21 26 0 -5 12 -25 26 -44 l26 -34 -4 46 c-3 52 8 55 35 10z m-1304 -86 c0 -16
-4 -38 -8 -48 -5 -15 -10 -10 -26 25 -11 24 -18 47 -17 51 1 5 -1 6 -5 4 -5
-3 -16 6 -26 19 -15 20 -15 23 -2 18 13 -5 15 -1 9 22 -6 28 -4 27 35 -16 28
-32 40 -54 40 -75z m1258 83 c-3 -8 -6 -5 -6 6 -1 11 2 17 5 13 3 -3 4 -12 1
-19z m-1457 -53 c25 -16 40 -33 40 -46 0 -11 5 -17 10 -14 6 3 10 -1 10 -9 0
-8 9 -20 20 -26 24 -13 27 2 5 24 -18 18 -19 26 -2 26 17 0 54 -66 57 -100 4
-44 1 -44 -30 -1 -17 23 -41 46 -55 51 -32 12 -95 75 -100 100 -5 25 -3 25 45
-5z m1600 -79 c0 -5 -11 1 -25 14 -14 13 -25 31 -25 39 0 17 49 -36 50 -53z
m651 -159 c-10 -9 -11 -8 -5 6 3 10 9 15 12 12 3 -3 0 -11 -7 -18z m-41 -18
c0 -11 -4 -17 -10 -14 -5 3 -10 13 -10 21 0 8 5 14 10 14 6 0 10 -9 10 -21z
m-3063 -10 c-10 -6 -22 -20 -27 -32 -8 -21 -9 -20 -9 5 -1 17 5 28 17 31 30 8
37 7 19 -4z m-47 -44 c0 -8 -4 -15 -10 -15 -5 0 -10 7 -10 15 0 8 5 15 10 15
6 0 10 -7 10 -15z m-50 -37 c0 -17 -3 -19 -9 -9 -7 11 -10 9 -16 -8 -7 -23
-26 -24 -33 -3 -2 7 3 12 11 12 8 0 17 7 21 15 8 23 26 18 26 -7z m3120 2 c0
-5 -4 -10 -10 -10 -5 0 -10 5 -10 10 0 6 5 10 10 10 6 0 10 -4 10 -10z m-3280
-40 c0 -5 -4 -10 -10 -10 -5 0 -10 5 -10 10 0 6 5 10 10 10 6 0 10 -4 10 -10z
m43 -42 c-23 -23 -46 -38 -50 -34 -4 5 -2 11 5 13 8 3 27 18 43 34 16 16 33
29 37 29 4 0 -12 -19 -35 -42z m2521 -238 c-22 -9 -29 -6 -20 9 4 6 14 7 23 4
15 -6 14 -7 -3 -13z m-37 -32 c-3 -7 -5 -2 -5 12 0 14 2 19 5 13 2 -7 2 -19 0
-25z m2608 -173 c-14 -21 -25 -42 -25 -48 0 -6 -3 -8 -6 -5 -9 10 44 102 54
93 2 -1 -8 -20 -23 -40z m-1706 -4 c-8 -3 -14 -13 -14 -21 0 -8 -6 -14 -13
-12 -7 1 -12 -3 -11 -10 3 -26 -1 -49 -9 -44 -4 2 -7 17 -6 33 1 15 3 36 3 45
1 11 6 15 15 12 8 -3 17 0 21 5 3 6 11 8 18 4 7 -4 6 -8 -4 -12z m1651 -11
c-6 -11 -12 -20 -14 -20 -2 0 -2 9 1 20 3 11 9 20 15 20 5 0 4 -9 -2 -20z
m-64 -45 c-50 -60 -56 -58 -9 4 21 26 40 47 42 45 2 -2 -13 -24 -33 -49z m40
-4 c0 -11 -4 -17 -9 -14 -5 3 -6 -4 -2 -16 4 -12 2 -21 -4 -21 -6 0 -7 -7 -4
-17 4 -11 3 -14 -6 -9 -13 9 -6 62 11 84 13 16 14 16 14 -7z m-1734 -23 c-7
-7 -12 -8 -12 -2 0 14 12 26 19 19 2 -3 -1 -11 -7 -17z m1638 -4 c-12 -31 -12
-37 -2 -30 4 2 8 -4 8 -15 0 -19 -1 -19 -13 -3 -12 17 -13 16 -13 -3 0 -12 -4
-25 -10 -28 -15 -10 -12 16 10 63 21 46 36 58 20 16z m131 3 c-10 -9 -11 -8
-5 6 3 10 9 15 12 12 3 -3 0 -11 -7 -18z m-2064 -9 c-3 -8 -6 -5 -6 6 -1 11 2
17 5 13 3 -3 4 -12 1 -19z m334 -21 c-10 -9 -11 -8 -5 6 3 10 9 15 12 12 3 -3
0 -11 -7 -18z m-483 -10 c2 -12 -1 -15 -12 -11 -19 7 -22 38 -3 32 6 -3 13
-12 15 -21z m-321 -29 c-3 -7 -5 -2 -5 12 0 14 2 19 5 13 2 -7 2 -19 0 -25z
m-47 -8 c0 -5 -5 -10 -11 -10 -5 0 -7 5 -4 10 3 6 8 10 11 10 2 0 4 -4 4 -10z"/>
<path d="M3368 5639 c-21 -12 -24 -52 -4 -68 21 -17 76 -3 76 21 0 49 -33 70
-72 47z m50 -37 c3 -18 -1 -22 -22 -22 -19 0 -26 5 -26 18 0 39 43 43 48 4z"/>
<path d="M4823 4301 c-32 -32 -68 -61 -80 -65 -13 -4 -23 -12 -23 -17 0 -31
80 24 133 93 20 26 35 48 33 48 -3 0 -31 -26 -63 -59z"/>
<path d="M4000 4322 c0 -6 21 -14 48 -17 87 -12 243 -46 277 -61 40 -16 45
-17 45 -6 0 17 -66 42 -165 64 -121 26 -205 34 -205 20z"/>
<path d="M2330 3950 c0 -5 5 -10 10 -10 6 0 10 5 10 10 0 6 -4 10 -10 10 -5 0
-10 -4 -10 -10z"/>
<path d="M3305 3659 c-4 -6 -5 -13 -2 -16 7 -7 27 6 27 18 0 12 -17 12 -25 -2z"/>
<path d="M2355 3750 c-3 -5 -1 -10 4 -10 6 0 11 5 11 10 0 6 -2 10 -4 10 -3 0
-8 -4 -11 -10z"/>
<path d="M5170 2781 c0 -6 5 -13 10 -16 6 -3 10 1 10 9 0 9 -4 16 -10 16 -5 0
-10 -4 -10 -9z"/>
<path d="M3195 3140 c3 -5 10 -10 16 -10 5 0 9 5 9 10 0 6 -7 10 -16 10 -8 0
-12 -4 -9 -10z"/>
<path d="M5451 2994 c0 -11 3 -14 6 -6 3 7 2 16 -1 19 -3 4 -6 -2 -5 -13z"/>
<path d="M5482 2970 c0 -14 2 -19 5 -12 2 6 2 18 0 25 -3 6 -5 1 -5 -13z"/>
<path d="M5552 2810 c14 -22 24 -19 15 5 -4 8 -11 15 -17 15 -6 0 -6 -7 2 -20z"/>
<path d="M5530 2760 c0 -5 5 -10 10 -10 6 0 10 5 10 10 0 6 -4 10 -10 10 -5 0
-10 -4 -10 -10z"/>
<path d="M1935 3080 c-3 -5 -2 -10 4 -10 5 0 13 5 16 10 3 6 2 10 -4 10 -5 0
-13 -4 -16 -10z"/>
<path d="M3580 5330 c0 -5 5 -10 10 -10 6 0 10 5 10 10 0 6 -4 10 -10 10 -5 0
-10 -4 -10 -10z"/>
<path d="M3565 5273 c-3 -21 -17 -83 -32 -138 -14 -55 -27 -113 -30 -130 -4
-29 -3 -29 10 5 56 137 94 280 75 280 -5 0 -6 5 -3 10 3 6 2 10 -4 10 -6 0
-13 -17 -16 -37z"/>
<path d="M3280 3924 c0 -8 -4 -13 -9 -9 -5 3 -17 -2 -25 -11 -9 -8 -16 -13
-16 -9 0 12 -26 -11 -80 -70 -30 -33 -46 -52 -34 -42 13 10 28 15 38 11 13 -5
17 -2 14 12 -2 10 3 19 10 20 6 1 17 2 22 3 6 0 10 7 10 14 0 6 18 25 40 41
34 25 53 56 35 56 -3 0 -5 -7 -5 -16z"/>
<path d="M5511 3494 c0 -11 3 -14 6 -6 3 7 2 16 -1 19 -3 4 -6 -2 -5 -13z"/>
<path d="M5480 3470 c0 -5 5 -10 11 -10 5 0 7 5 4 10 -3 6 -8 10 -11 10 -2 0
-4 -4 -4 -10z"/>
<path d="M4270 1960 c0 -5 5 -10 10 -10 6 0 10 5 10 10 0 6 -4 10 -10 10 -5 0
-10 -4 -10 -10z"/>
<path d="M4252 1905 c0 -16 2 -22 5 -12 2 9 2 23 0 30 -3 6 -5 -1 -5 -18z"/>
<path d="M4170 1850 c-13 -8 -12 -10 3 -10 9 0 17 5 17 10 0 12 -1 12 -20 0z"/>
<path d="M4260 1833 c-14 -3 -28 -10 -32 -17 -6 -8 -8 -8 -8 2 0 6 -4 12 -10
12 -5 0 -10 -7 -10 -16 0 -11 -6 -15 -20 -11 -11 3 -23 1 -26 -4 -10 -17 56
-9 96 12 22 12 40 23 40 25 0 2 -1 3 -2 3 -2 -1 -14 -4 -28 -6z"/>
<path d="M4170 1819 c0 -5 5 -7 10 -4 6 3 10 8 10 11 0 2 -4 4 -10 4 -5 0 -10
-5 -10 -11z"/>
</g>
</svg>
